<?xml version="1.0" standalone="no"?>
<!DOCTYPE svg PUBLIC "-//W3C//DTD SVG 20010904//EN"
 "http://www.w3.org/TR/2001/REC-SVG-20010904/DTD/svg10.dtd">
<svg version="1.0" xmlns="http://www.w3.org/2000/svg"
 width="1024.000000pt" height="1024.000000pt" viewBox="0 0 1024.000000 1024.000000"
 preserveAspectRatio="xMidYMid meet">
<metadata>
Created by potrace 1.14, written by Peter Selinger 2001-2017
</metadata>
<g transform="translate(0.000000,1024.000000) scale(0.100000,-0.100000)"
fill="#000000" stroke="none">
<path d="M5962 8890 l-11 -30 -2308 -3 -2308 -2 -90 -31 c-119 -41 -194 -85
-273 -158 -122 -115 -209 -270 -231 -416 -15 -92 -15 -6444 -1 -6545 18 -124
97 -278 200 -389 98 -105 215 -171 362 -202 79 -17 222 -18 2663 -15 2698 3
2646 2 2740 43 125 55 256 160 318 256 15 23 39 60 53 81 43 66 76 178 95 330
12 90 26 155 36 170 9 15 253 263 542 553 289 289 576 577 637 640 61 62 133
133 160 158 145 135 663 674 698 726 59 86 65 97 72 114 3 8 10 24 14 35 13
28 28 118 35 200 5 59 2 82 -19 145 -52 158 -85 199 -429 540 -157 155 -213
194 -332 231 -53 17 -95 22 -175 23 -92 0 -116 -4 -192 -31 -48 -17 -111 -47
-140 -66 -29 -19 -177 -162 -328 -317 -456 -467 -537 -550 -544 -550 -3 0 -6
603 -6 1340 l0 1340 248 0 247 0 -132 128 c-72 70 -169 161 -214 202 -106 96
-116 107 -355 356 -111 115 -232 245 -270 288 -38 44 -99 112 -135 150 -36 39
-79 87 -95 107 -16 19 -72 87 -124 149 -52 63 -113 140 -135 171 -100 144
-237 309 -256 309 -4 0 -12 -13 -17 -30z m-37 -357 c-24 -64 -56 -199 -70
-295 -32 -227 -30 -313 9 -635 2 -18 7 -37 11 -43 6 -10 12 -33 21 -83 3 -16
12 -47 20 -69 8 -23 12 -43 10 -45 -2 -3 -1105 -7 -2450 -10 l-2446 -6 -1 129
c0 71 0 262 1 424 2 327 5 345 72 458 50 83 155 158 255 181 22 5 1030 9 2307
10 2156 1 2268 0 2261 -16z m292 -387 c4 -8 40 -47 78 -89 39 -41 97 -105 130
-143 33 -37 101 -111 151 -163 50 -53 122 -129 160 -170 38 -41 89 -95 114
-121 25 -26 56 -59 69 -74 l24 -26 -336 0 -337 0 -29 63 c-73 156 -93 259 -98
487 -3 102 -2 214 2 249 l7 63 29 -31 c15 -17 32 -38 36 -45z m683 -2577 l-1
-1492 -27 -36 c-27 -36 -139 -155 -189 -201 -16 -14 -46 -45 -68 -69 -22 -23
-107 -112 -190 -196 -82 -84 -173 -177 -201 -206 -27 -30 -91 -93 -141 -142
-86 -82 -92 -91 -103 -145 -7 -31 -18 -77 -25 -102 -19 -64 -50 -175 -70 -245
-9 -33 -21 -72 -25 -87 -5 -16 -6 -28 -3 -28 3 0 1 -6 -5 -12 -5 -7 -24 -68
-41 -136 -17 -67 -39 -146 -49 -175 l-18 -52 -69 0 -68 0 7 -150 c4 -82 14
-233 22 -335 7 -102 14 -195 14 -207 l0 -23 264 0 263 0 -4 23 c-4 20 6 31 64
69 87 59 432 232 577 289 30 12 53 16 58 11 6 -6 6 -46 0 -104 -16 -171 -109
-309 -250 -375 -41 -19 -88 -38 -106 -42 -17 -3 -1178 -6 -2581 -6 -2421 0
-2552 1 -2599 18 -96 35 -181 94 -223 155 -32 46 -70 127 -65 139 0 2 -3 17
-8 34 -9 30 -12 1236 -11 4011 1 1226 2 1297 19 1301 9 2 1330 5 2935 6 l2918
1 -1 -1491z m1610 -540 c59 -22 81 -41 343 -304 82 -82 159 -166 172 -185 43
-65 41 -216 -3 -253 -13 -10 -23 -3 -61 42 -25 30 -104 112 -176 183 -71 70
-134 132 -139 137 -4 5 -34 34 -65 65 -31 30 -67 68 -81 83 -14 15 -67 68
-118 117 -103 99 -103 98 -12 122 63 18 78 17 140 -7z m-378 -278 c35 -32 127
-124 205 -202 372 -378 483 -494 483 -510 0 -25 -83 -111 -100 -104 -8 4 -40
36 -70 72 -30 37 -70 80 -88 97 -112 107 -602 606 -602 614 0 12 84 92 97 92
7 0 41 -27 75 -59z m-312 -312 c30 -33 181 -187 335 -342 155 -155 298 -303
319 -329 l38 -47 -75 -73 c-41 -40 -79 -77 -84 -83 -6 -5 -125 -127 -265 -270
-210 -214 -391 -395 -505 -507 -10 -10 -89 -90 -176 -178 -87 -88 -162 -160
-166 -160 -7 0 -87 77 -390 374 -144 141 -354 361 -359 376 -4 12 -33 -19 288
311 356 368 972 989 979 989 3 0 31 -27 61 -61z m-1321 -1577 c149 -145 412
-401 489 -474 23 -23 42 -44 42 -48 0 -7 -178 -89 -247 -114 -21 -8 -104 -46
-184 -85 -80 -39 -149 -71 -153 -71 -6 0 -96 82 -313 285 l-32 30 18 65 c10
36 26 92 35 125 10 33 28 96 41 140 12 44 30 105 39 136 9 31 16 64 16 74 0
10 16 38 36 62 43 52 18 66 213 -125z m-562 -872 c48 -41 107 -93 131 -115
l44 -41 -57 -44 c-60 -48 -63 -49 -113 -28 -28 11 -34 11 -42 -2 -8 -13 -10
-12 -10 3 0 12 -12 23 -30 30 l-30 11 0 134 c0 88 4 132 10 130 6 -2 50 -37
97 -78z"/>
<path d="M1406 8183 c-107 -41 -158 -113 -161 -226 -3 -92 31 -169 100 -229
31 -27 112 -51 169 -50 71 1 122 25 183 88 42 44 54 65 64 110 14 64 1 153
-30 205 -29 47 -117 107 -175 118 -65 14 -78 12 -150 -16z"/>
<path d="M2937 8196 c-67 -18 -126 -64 -161 -126 -25 -44 -30 -64 -31 -128 -2
-75 -1 -75 50 -151 45 -66 58 -79 106 -99 102 -43 223 -12 299 76 74 87 86
191 34 294 -30 60 -57 85 -119 113 -66 30 -119 36 -178 21z"/>
<path d="M3678 8193 c-101 -26 -173 -109 -185 -213 -12 -106 19 -182 105 -253
55 -46 134 -64 207 -48 66 15 153 83 184 146 20 41 23 57 19 129 -6 94 -30
146 -92 196 -39 30 -122 61 -160 59 -12 -1 -47 -8 -78 -16z"/>
<path d="M2190 8193 c-59 -20 -103 -48 -133 -85 -35 -44 -61 -103 -52 -118 3
-5 1 -11 -5 -15 -11 -7 -14 -58 -3 -69 4 -3 8 -13 9 -21 5 -31 26 -85 34 -85
5 0 12 -9 15 -20 16 -51 141 -110 220 -104 64 6 102 24 161 77 40 36 55 59 69
103 45 143 -20 281 -155 329 -41 14 -129 19 -160 8z"/>
<path d="M1672 5631 c1 -654 6 -1192 10 -1196 7 -7 4411 -14 4440 -7 17 4 17
74 15 1196 l-2 1191 -2233 3 -2234 2 4 -1189z m4153 244 c0 -341 -1 -736 -3
-877 l-3 -258 -1919 0 -1920 0 0 875 0 875 1088 2 c598 2 1463 3 1922 3 l835
0 0 -620z"/>
<path d="M3890 6131 c0 -13 -117 -190 -152 -230 -17 -19 -50 -64 -74 -100 -25
-36 -70 -97 -100 -136 -31 -38 -70 -91 -88 -117 l-32 -47 -65 76 c-35 42 -84
99 -109 127 -25 28 -70 80 -100 116 -30 36 -80 93 -111 128 -32 35 -67 83 -78
108 -12 24 -27 44 -35 44 -7 0 -35 -26 -62 -57 -27 -32 -84 -96 -128 -143 -43
-47 -108 -118 -145 -159 -36 -40 -92 -99 -124 -130 l-58 -56 7 -57 7 -57 48
-16 49 -16 47 43 c26 24 56 54 68 67 61 71 269 291 275 291 8 0 59 -55 82 -89
16 -23 89 -105 233 -260 39 -42 84 -94 100 -116 41 -57 84 -95 106 -95 10 0
26 12 36 28 10 15 52 71 93 124 41 53 89 116 107 140 17 24 41 53 52 65 12 12
46 59 77 105 31 46 65 93 74 106 l18 22 49 -67 c26 -37 60 -86 74 -109 14 -22
37 -51 50 -65 14 -13 40 -46 59 -74 18 -27 55 -75 81 -105 25 -30 50 -62 55
-71 5 -9 28 -38 52 -64 l43 -49 45 45 c25 24 60 64 77 89 30 44 59 78 204 236
39 44 93 107 120 141 26 34 53 62 59 63 7 0 38 -30 70 -66 33 -36 93 -100 134
-142 42 -43 101 -105 133 -140 l56 -62 63 43 c49 34 62 48 61 66 -3 21 -196
241 -360 409 -39 40 -89 100 -110 132 -21 33 -42 58 -48 56 -5 -1 -31 -31 -58
-67 -26 -35 -58 -75 -69 -89 -12 -14 -51 -59 -85 -100 -35 -41 -73 -86 -85
-100 -11 -14 -47 -59 -78 -100 -32 -41 -71 -88 -88 -104 l-31 -28 -32 24 c-17
14 -45 46 -63 70 -130 187 -175 249 -209 288 -21 25 -48 63 -59 85 -12 22 -34
55 -50 74 -16 18 -34 44 -40 57 -11 23 -38 34 -38 15z"/>
<path d="M1530 4000 l0 -150 1968 -1 c2141 0 2755 -5 2760 -20 10 -28 89 13
141 73 18 20 52 48 76 62 24 14 69 56 99 93 51 62 55 69 39 80 -13 10 -535 13
-2550 13 l-2533 0 0 -150z"/>
<path d="M1532 3179 l3 -162 2055 -1 2055 -1 8 50 c18 110 90 245 132 245 6 0
20 7 31 15 17 13 -239 14 -2134 15 l-2152 0 2 -161z"/>
<path d="M1532 2700 l3 -165 1985 0 1985 1 -3 27 c-3 32 3 55 52 191 20 55 35
100 33 102 -1 1 -914 4 -2030 6 l-2027 3 2 -165z"/>
<path d="M1530 2225 l0 -165 920 0 920 0 0 165 0 165 -920 0 -920 0 0 -165z"/>
<path d="M10080 80 l0 -80 80 0 80 0 0 80 0 80 -80 0 -80 0 0 -80z"/>
</g>
</svg>
